<svg xmlns="http://www.w3.org/2000/svg" version="1.1" xmlns:xlink="http://www.w3.org/1999/xlink" xmlns:svgjs="http://svgjs.dev/svgjs" width="2000" height="1247" viewBox="0 0 2000 1247"><g transform="matrix(1,0,0,1,-1.2121212121212466,0.504858299595071)"><svg viewBox="0 0 396 247" data-background-color="#35185a" preserveAspectRatio="xMidYMid meet" height="1247" width="2000" xmlns="http://www.w3.org/2000/svg" xmlns:xlink="http://www.w3.org/1999/xlink"><g id="tight-bounds" transform="matrix(1,0,0,1,0.2400000000000091,-0.09999999999999432)"><svg viewBox="0 0 395.52 247.2" height="247.2" width="395.52"><g><svg></svg></g><g><svg viewBox="0 0 395.52 247.2" height="247.2" width="395.52"><g transform="matrix(1,0,0,1,75.54432,74.35957105822649)"><svg viewBox="0 0 244.43135999999998 98.48085788354702" height="98.48085788354702" width="244.43135999999998"><g><svg viewBox="0 0 244.43135999999998 98.48085788354702" height="98.48085788354702" width="244.43135999999998"><g><svg viewBox="0 0 244.43136 98.48085788354703" height="98.48085788354702" width="244.43135999999998"><g><svg viewBox="0 0 244.43136 98.48085788354703" height="98.48085788354703" width="244.43136"><g id="textblocktransform"><svg viewBox="0 0 244.43136 98.48085788354703" height="98.48085788354703" width="244.43136" id="textblock"><g><svg viewBox="0 0 244.43136 53.11586897384306" height="53.11586897384306" width="244.43136"><g transform="matrix(1,0,0,1,0,0)"><svg width="244.43136" viewBox="0.44999998807907104 -36.79999923706055 173.94000244140625 37.79999923706055" height="53.11586897384306" data-palette-color="#a437db"><path d="M30.55-33L30.55-33 30.6-31.7Q30.6-27.8 29.9-23.5L29.9-23.5 26.5-23.5 25.85-29.15 18.55-29.55 18.55-3.15 24-2.45 23.95 0 7.5 0 7.2-1.6 10.85-3 12.45-3.55 12.45-29.55 5.15-29.15 4.5-23.5 1.15-23.5Q0.45-27.6 0.45-31.4L0.45-31.4 0.5-33 15.6-32.8Q23.55-32.8 30.55-33ZM55.9-16.4L55.9-3.6Q58.2-3.1 59.5-2.4L59.5-2.4 59.3 0 47.45 0 47.25-1.7 50.05-2.85 50.05-14.6Q50.05-19.75 46.9-19.75L46.9-19.75Q44.8-19.75 40.75-17.2L40.75-17.2 40.75-3.55Q42.8-3 43.85-2.4L43.85-2.4 43.65 0 31.35 0 31.15-1.7Q32.7-2.45 34.9-3.15L34.9-3.15 34.9-32.65 31.15-32.75 30.65-35.15Q34.1-36.55 38.5-36.8L38.5-36.8 40.75-34.8 40.75-19.6Q46.6-23.85 49.9-24.4L49.9-24.4Q51.4-24.2 52.92-23.25 54.45-22.3 55.25-20.95L55.25-20.95Q55.85-19.85 55.9-16.4L55.9-16.4ZM68.34-28.3L68.34-28.3Q65.59-29.45 63.8-31.8L63.8-31.8Q65.3-34.8 67.5-36.35L67.5-36.35Q70.05-35.2 71.84-32.65L71.84-32.65Q70.7-29.85 68.34-28.3ZM71-22.45L71-3.6Q73.3-3.2 74.55-2.4L74.55-2.4 74.34 0 61.55 0 61.34-1.7Q62.8-2.45 65.14-3.15L65.14-3.15 65.14-20.35 61.4-20.4 60.9-22.8Q64.34-24.2 68.75-24.45L68.75-24.45 71-22.45ZM94.94-12.4L82.19-12.6Q82.19-8.35 84.42-6 86.64-3.65 90.09-3.65L90.09-3.65Q92.79-3.65 96.49-5.35L96.49-5.35 97.39-3 89.59 0.7Q83.79 1 80.07-2.45 76.34-5.9 76.34-11.45L76.34-11.45Q76.34-16.85 79.82-20.73 83.29-24.6 88.24-24.6L88.24-24.6Q92.44-24.6 95.17-21.98 97.89-19.35 97.84-15.2L97.84-15.2 94.94-12.4ZM86.09-21.2L86.09-21.2Q83.44-19.7 82.54-15.6L82.54-15.6 92.29-16.1Q91.89-18.4 90.17-19.83 88.44-21.25 86.09-21.2ZM120.29-23.05L120.29-23.05Q120.39-18.75 118.94-14.25L118.94-14.25 115.69-14.25 114.89-19.85Q111.49-17.6 108.99-14.45L108.99-14.45 108.99-3.75Q112.74-3.25 114.19-2.4L114.19-2.4 113.99 0 99.64 0 99.44-1.7Q101.04-2.5 103.14-3.15L103.14-3.15 103.14-20.35 99.39-20.4 98.89-22.8Q102.34-24.2 106.74-24.45L106.74-24.45 108.99-22.45 108.99-18.2 114.09-23.75Q115.29-24.25 116.64-24.25L116.64-24.25Q118.79-24.25 120.29-23.05ZM146.74-16.4L146.74-3.6Q149.04-3.1 150.29-2.4L150.29-2.4 150.04 0 138.29 0 138.09-1.7 140.89-2.85 140.89-14.6Q140.89-19.75 137.74-19.75L137.74-19.75Q135.59-19.75 131.44-17.1L131.44-17.1 131.44-3.55Q133.49-3 134.54-2.4L134.54-2.4 134.34 0 122.19 0 121.99-1.7Q123.19-2.35 125.59-3.1L125.59-3.1 125.59-20.35 121.84-20.4 121.34-22.8Q124.79-24.2 129.19-24.45L129.19-24.45 131.44-22.35 131.44-19.5Q137.54-23.85 140.74-24.4L140.74-24.4Q142.24-24.2 143.76-23.25 145.29-22.3 146.09-20.95L146.09-20.95Q146.69-19.85 146.74-16.4L146.74-16.4ZM151.19-11.9L151.19-11.9Q151.19-17.5 154.51-21.05 157.84-24.6 162.89-24.6 167.94-24.6 171.16-21.03 174.39-17.45 174.39-11.65L174.39-11.65Q174.39-5.9 171.21-2.45 168.03 1 163.03 1L163.03 1Q157.89 1 154.53-2.63 151.19-6.25 151.19-11.9ZM165.59-3L165.59-3Q168.34-4.85 168.34-11.1L168.34-11.1Q168.34-15.4 166.91-18.18 165.49-20.95 162.53-20.95L162.53-20.95Q160.64-20.95 159.34-20L159.34-20Q157.28-17.45 157.28-12.25L157.28-12.25Q157.28-8.15 158.84-5.4 160.39-2.65 163.49-2.65L163.49-2.65Q164.49-2.65 165.59-3Z" opacity="1" transform="matrix(1,0,0,1,0,0)" fill="#a437db" class="undefined-text-0" data-fill-palette-color="primary" id="text-0"></path></svg></g></svg></g><g transform="matrix(1,0,0,1,0,65.65525085771203)"><svg viewBox="0 0 244.43136 32.82560702583501" height="32.82560702583501" width="244.43136"><g transform="matrix(1,0,0,1,0,0)"><svg width="244.43136" viewBox="2.0999999046325684 -36.150001525878906 336.9499816894531 45.25" height="32.82560702583501" data-palette-color="#b19dd0"><path d="M15.6 0.6Q2.1 0.6 2.1-17.15L2.1-17.15Q2.1-34.9 15.6-34.9L15.6-34.9Q21.05-34.9 24.3-31.58 27.55-28.25 27.55-21.9L27.55-21.9 23.05-21.9Q23.05-26.3 21.05-28.58 19.05-30.85 15.6-30.85L15.6-30.85Q11.1-30.85 8.9-27.75 6.7-24.65 6.7-18.4L6.7-18.4 6.7-15.9Q6.7-9.65 8.9-6.55 11.1-3.45 15.6-3.45L15.6-3.45Q19.15-3.45 21.18-5.7 23.2-7.95 23.2-12.3L23.2-12.3 27.55-12.3Q27.55-5.9 24.33-2.65 21.1 0.6 15.6 0.6L15.6 0.6ZM41.67 9.1Q39.87 9.1 38.72 8.7L38.72 8.7 38.72 5.85 40.17 5.85Q44.12 5.85 45.37 0L45.37 0 37.32-26.3 41.82-26.3 46.27-10.6 47.62-5.9 47.82-5.9 48.97-10.7 52.72-26.3 56.87-26.3 50.17-1.35Q48.87 3.55 46.87 6.33 44.87 9.1 41.67 9.1L41.67 9.1ZM77.18 0.6Q75.38 0.6 73.88-0.33 72.38-1.25 71.43-3.05L71.43-3.05 71.18-3.05 70.63 0 67.53 0 67.53-36.15 71.63-36.15 71.63-23.8 71.88-23.8Q72.53-25.25 74.03-26.08 75.53-26.9 77.48-26.9L77.48-26.9Q80.98-26.9 83.16-23.45 85.33-20 85.33-13.2L85.33-13.2Q85.33-6.2 83.21-2.8 81.08 0.6 77.18 0.6L77.18 0.6ZM76.33-3.05Q78.73-3.05 79.88-5.2 81.03-7.35 81.03-12.2L81.03-12.2 81.03-14.1Q81.03-18.95 79.88-21.1 78.73-23.25 76.33-23.25L76.33-23.25Q71.63-23.25 71.63-13.9L71.63-13.9 71.63-12.2Q71.63-3.05 76.33-3.05L76.33-3.05ZM106.6 0.6Q101.6 0.6 99.12-2.68 96.65-5.95 96.65-13.15L96.65-13.15Q96.65-20.2 99.1-23.55 101.55-26.9 106.55-26.9L106.55-26.9Q110.95-26.9 113.07-23.98 115.2-21.05 115.2-14.55L115.2-14.55 115.2-11.95 100.95-11.95Q101-7.35 102.37-5.2 103.75-3.05 106.7-3.05L106.7-3.05Q108.7-3.05 109.92-4.65 111.15-6.25 111.15-8.95L111.15-8.95 115.2-8.95Q115.2-4.55 112.82-1.98 110.45 0.6 106.6 0.6L106.6 0.6ZM101-15.6L110.9-15.6Q110.9-19.35 109.8-21.3 108.7-23.25 106.55-23.25L106.55-23.25Q103.9-23.25 102.57-21.38 101.25-19.5 101-15.6L101-15.6ZM127.57 0L127.57-26.3 130.67-26.3 131.22-22.85 131.52-22.85Q132.07-24.6 133.17-25.75 134.27-26.9 135.97-26.9L135.97-26.9Q137.02-26.9 137.92-26.5L137.92-26.5 137.92-22.25 136.57-22.25Q134.42-22.25 133.04-20.78 131.67-19.3 131.67-16.05L131.67-16.05 131.67 0 127.57 0ZM155.53 0.6Q151.28 0.6 149.18-1.63 147.08-3.85 147.08-7.1L147.08-7.1Q147.08-7.7 147.11-7.93 147.13-8.15 147.13-8.2L147.13-8.2 151.43-8.2 151.43-7.7Q151.43-5.35 152.63-4.17 153.83-3 155.73-3L155.73-3Q157.43-3 158.56-4.03 159.68-5.05 159.68-6.9L159.68-6.9Q159.68-8.3 158.98-9.2 158.28-10.1 157.28-10.63 156.28-11.15 154.48-11.8L154.48-11.8Q152.28-12.55 150.93-13.3 149.58-14.05 148.63-15.53 147.68-17 147.68-19.4L147.68-19.4Q147.68-22.85 149.91-24.88 152.13-26.9 155.88-26.9L155.88-26.9Q159.43-26.9 161.43-24.83 163.43-22.75 163.43-19.7L163.43-19.7 163.38-18.75 159.13-18.75 159.13-19.2Q159.13-20.95 158.28-22.13 157.43-23.3 155.48-23.3L155.48-23.3Q153.53-23.3 152.73-22.2 151.93-21.1 151.93-19.7L151.93-19.7Q151.93-18 153.11-17.18 154.28-16.35 156.73-15.55L156.73-15.55Q158.98-14.75 160.43-13.98 161.88-13.2 162.91-11.65 163.93-10.1 163.93-7.5L163.93-7.5Q163.93-3.45 161.66-1.43 159.38 0.6 155.53 0.6L155.53 0.6ZM185.2 0.6Q180.2 0.6 177.72-2.68 175.25-5.95 175.25-13.15L175.25-13.15Q175.25-20.2 177.7-23.55 180.15-26.9 185.15-26.9L185.15-26.9Q189.55-26.9 191.67-23.98 193.8-21.05 193.8-14.55L193.8-14.55 193.8-11.95 179.55-11.95Q179.6-7.35 180.97-5.2 182.35-3.05 185.3-3.05L185.3-3.05Q187.3-3.05 188.52-4.65 189.75-6.25 189.75-8.95L189.75-8.95 193.8-8.95Q193.8-4.55 191.42-1.98 189.05 0.6 185.2 0.6L185.2 0.6ZM179.6-15.6L189.5-15.6Q189.5-19.35 188.4-21.3 187.3-23.25 185.15-23.25L185.15-23.25Q182.5-23.25 181.17-21.38 179.85-19.5 179.6-15.6L179.6-15.6ZM213.97 0.6Q209.32 0.6 207.14-2.73 204.97-6.05 204.97-13.15L204.97-13.15Q204.97-20.25 207.17-23.58 209.37-26.9 213.97-26.9L213.97-26.9Q218.17-26.9 220.09-24.3 222.02-21.7 222.02-16.55L222.02-16.55 217.77-16.55Q217.77-20.1 216.94-21.68 216.12-23.25 213.97-23.25L213.97-23.25Q211.57-23.25 210.42-20.98 209.27-18.7 209.27-14.1L209.27-14.1 209.27-12.2Q209.27-7.6 210.39-5.33 211.52-3.05 213.97-3.05L213.97-3.05Q216.12-3.05 217.04-4.7 217.97-6.35 217.97-9.75L217.97-9.75 222.02-9.75Q222.02-5.25 220.04-2.33 218.07 0.6 213.97 0.6L213.97 0.6ZM240.38 0.6Q237.23 0.6 235.56-1.28 233.88-3.15 233.88-7.35L233.88-7.35 233.88-26.3 237.98-26.3 237.98-7.65Q237.98-5.1 238.93-4.08 239.88-3.05 241.68-3.05L241.68-3.05Q243.73-3.05 245.16-5 246.58-6.95 246.58-10.25L246.58-10.25 246.58-26.3 250.68-26.3 250.68 0 247.58 0 247.03-3.05 246.73-3.05Q244.68 0.6 240.38 0.6L240.38 0.6ZM263.9 0L263.9-26.3 267-26.3 267.55-22.85 267.85-22.85Q268.4-24.6 269.5-25.75 270.6-26.9 272.3-26.9L272.3-26.9Q273.35-26.9 274.25-26.5L274.25-26.5 274.25-22.25 272.9-22.25Q270.75-22.25 269.37-20.78 268-19.3 268-16.05L268-16.05 268 0 263.9 0ZM285.41 0L285.41-26.3 289.51-26.3 289.51 0 285.41 0ZM285.31-31.4L285.31-36.15 289.56-36.15 289.56-31.4 285.31-31.4ZM308.03 0.5Q305.53 0.5 304.43-1.23 303.33-2.95 303.33-5.55L303.33-5.55 303.33-22.65 301.08-22.65 301.08-26.3 303.33-26.3 304.23-33.6 307.43-33.6 307.43-26.3 310.98-26.3 310.98-22.65 307.43-22.65 307.43-5.45Q307.43-3.05 309.78-3.05L309.78-3.05 310.98-3.05 310.98-0.2Q310.43 0.1 309.61 0.3 308.78 0.5 308.03 0.5L308.03 0.5ZM323.85 9.1Q322.05 9.1 320.9 8.7L320.9 8.7 320.9 5.85 322.35 5.85Q326.3 5.85 327.55 0L327.55 0 319.5-26.3 324-26.3 328.45-10.6 329.8-5.9 330-5.9 331.15-10.7 334.9-26.3 339.05-26.3 332.35-1.35Q331.05 3.55 329.05 6.33 327.05 9.1 323.85 9.1L323.85 9.1Z" opacity="1" transform="matrix(1,0,0,1,0,0)" fill="#b19dd0" class="undefined-text-1" data-fill-palette-color="secondary" id="text-1"></path></svg></g></svg></g></svg></g></svg></g></svg></g></svg></g></svg></g><g><path d="M0 123.6c0-68.262 55.338-123.6 123.6-123.6 48.3 0 90.13 27.705 110.464 68.09l-2.689 0c-20.137-39.018-60.841-65.695-107.775-65.695-66.94 0-121.205 54.265-121.205 121.205 0 66.94 54.265 121.205 121.205 121.205 46.934 0 87.638-26.677 107.775-65.695h2.689c-20.334 40.385-62.163 68.09-110.464 68.09-68.262 0-123.6-55.338-123.6-123.6z" fill="#a437db" stroke="transparent" data-fill-palette-color="tertiary"></path></g></svg></g><defs></defs></svg><rect width="395.52" height="247.2" fill="none" stroke="none" visibility="hidden"></rect></g></svg></g></svg>